<?xml version="1.0" standalone="no"?>
<!DOCTYPE svg PUBLIC "-//W3C//DTD SVG 20010904//EN"
 "http://www.w3.org/TR/2001/REC-SVG-20010904/DTD/svg10.dtd">
<svg version="1.0" xmlns="http://www.w3.org/2000/svg"
 width="817.000000pt" height="817.000000pt" viewBox="0 0 817.000000 817.000000"
 preserveAspectRatio="xMidYMid meet">
<metadata>
Created by potrace 1.16, written by Peter Selinger 2001-2019
</metadata>
<linearGradient id="linear-gradient">
    <stop offset="2.29%" stop-color="#255D8B"/>
    <stop offset=" 96.79%" stop-color="#3A80BA"/>
</linearGradient>
<g transform="translate(0.000000,817.000000) scale(0.100000,-0.100000)"
fill="url(#linear-gradient)" stroke="none">
<path d="M5745 7495 c-188 -19 -321 -39 -660 -102 -722 -132 -796 -143 -1050
-150 -147 -4 -256 0 -480 18 -330 26 -803 31 -1035 11 -290 -26 -749 -189
-1105 -395 -602 -347 -1037 -881 -1266 -1554 -99 -293 -139 -551 -139 -908 0
-304 27 -523 100 -822 196 -793 683 -1626 1319 -2253 613 -604 1309 -1009
1966 -1144 548 -113 1116 -50 1713 190 237 96 730 363 715 388 -3 5 -1 6 5 2
10 -6 58 24 211 133 161 116 233 171 406 316 169 141 262 215 329 260 110 76
346 216 399 237 11 5 15 13 11 19 -4 8 -3 9 4 5 14 -8 175 78 164 88 -4 4 0 7
8 5 20 -4 62 20 55 31 -3 6 0 7 7 5 17 -7 141 73 133 85 -3 6 0 7 8 4 9 -3 22
4 31 18 9 12 16 19 16 16 0 -4 12 4 28 19 15 14 26 33 25 42 -2 10 0 11 3 3 5
-10 14 -6 35 14 15 15 25 32 22 38 -3 6 -3 8 2 4 4 -4 13 -2 19 5 26 27 96
125 96 135 0 5 4 12 9 14 12 4 83 148 74 148 -5 0 -3 4 3 8 15 10 70 176 95
285 33 149 51 249 45 255 -3 3 -2 10 3 16 5 6 11 31 14 56 3 25 11 78 16 118
41 281 58 692 42 993 -12 212 -47 554 -59 573 -3 6 -5 18 -4 27 3 18 -48 285
-84 439 -14 58 -58 218 -99 355 -40 138 -94 324 -120 415 -163 578 -298 880
-475 1063 -31 31 -55 57 -53 57 8 0 -105 96 -169 144 -156 114 -377 211 -568
250 -190 38 -506 46 -765 21z m-2412 -1199 c56 -24 58 -27 292 -461 27 -49 70
-130 97 -180 54 -98 47 -74 218 -810 139 -602 172 -740 179 -752 4 -7 34 7 87
43 l81 54 6 248 c3 168 12 298 26 408 l22 160 -44 67 c-25 38 -54 99 -67 143
-21 71 -22 84 -11 158 14 100 52 184 117 256 132 146 208 254 255 360 21 48
24 70 24 173 0 133 7 147 71 147 28 0 46 -13 120 -87 180 -183 294 -373 340
-569 23 -98 15 -303 -16 -399 -27 -83 -61 -153 -105 -215 l-32 -45 -6 -225
c-4 -124 -11 -265 -17 -315 -6 -49 -11 -107 -13 -129 l-2 -39 67 -18 c36 -10
91 -29 121 -43 l55 -24 12 27 c7 14 54 128 106 253 104 252 137 355 158 503
14 94 17 102 50 131 19 17 75 54 123 84 48 29 138 85 198 124 162 105 200 126
234 126 38 0 58 -20 72 -73 39 -144 129 -556 129 -591 0 -36 -8 -52 -54 -110
-75 -95 -144 -223 -225 -421 -83 -204 -169 -412 -245 -595 -55 -132 -56 -136
-46 -189 10 -55 7 -248 -5 -287 -6 -20 -2 -21 67 -27 40 -3 98 -15 129 -26 69
-26 166 -88 209 -133 18 -18 38 -32 44 -30 6 2 8 1 4 -3 -4 -4 10 -35 32 -69
66 -105 84 -173 84 -311 0 -112 -2 -126 -33 -202 -71 -180 -211 -306 -396
-355 -40 -10 -367 -13 -1705 -13 -1577 0 -1658 1 -1714 18 -104 32 -177 76
-252 151 -113 113 -166 239 -167 396 0 147 34 250 120 363 79 103 211 183 343
208 36 7 66 14 68 14 1 1 -11 33 -27 71 -42 98 -288 694 -445 1076 -64 157
-70 204 -33 259 20 31 55 48 342 168 176 73 338 135 361 138 44 6 86 -11 117
-45 10 -11 108 -235 217 -498 115 -279 203 -478 210 -476 6 1 38 6 71 11 32 4
62 10 65 14 3 3 -5 54 -19 114 -15 59 -58 245 -97 413 -39 168 -96 411 -127
540 -30 129 -65 284 -78 344 l-22 109 14 386 c13 361 16 389 36 431 37 75 132
110 210 76z"/>
<path d="M3255 6151 c-3 -6 -9 -82 -12 -169 l-6 -159 36 -6 c58 -9 157 27 157
57 -1 18 -146 280 -158 284 -5 1 -13 -2 -17 -7z"/>
<path d="M4752 6004 c-32 -122 -141 -294 -289 -459 -59 -65 -79 -103 -92 -172
-15 -79 14 -183 67 -239 23 -24 62 -29 294 -40 117 -6 139 -5 152 9 30 29 94
162 112 227 22 85 22 217 0 300 -34 131 -115 285 -203 389 l-28 33 -13 -48z
m142 -327 c39 -28 45 -150 15 -278 -39 -165 -120 -252 -188 -202 -38 29 -39
70 -1 129 43 68 62 142 60 227 -4 96 -3 103 16 121 19 19 74 21 98 3z"/>
<path d="M3450 5702 c-36 -21 -61 -27 -132 -30 l-88 -4 -2 -87 c-1 -47 -2
-103 -4 -123 -2 -32 3 -42 34 -69 49 -43 91 -59 159 -59 68 0 128 33 169 94
44 64 42 93 -9 185 -25 44 -48 90 -52 101 -8 25 -19 24 -75 -8z"/>
<path d="M3634 5256 c-23 -17 -49 -35 -58 -41 -14 -9 -13 -20 9 -109 14 -54
25 -113 25 -131 0 -52 -55 -86 -103 -64 -32 14 -34 18 -67 154 l-26 110 -55 6
c-30 4 -62 10 -73 14 -15 7 -17 4 -13 -11 3 -10 40 -165 82 -344 41 -179 93
-399 114 -490 21 -91 55 -235 75 -321 l37 -156 57 -13 c31 -7 63 -15 71 -18
11 -4 12 3 7 34 -8 39 -91 399 -147 632 -16 67 -29 127 -29 133 0 5 11 21 25
34 29 30 84 34 108 8 8 -10 33 -94 55 -188 22 -93 68 -290 103 -436 l62 -266
49 74 c26 40 48 79 48 85 0 6 -20 97 -45 202 -134 574 -197 845 -226 971 -17
77 -34 145 -38 151 -4 8 -20 1 -47 -20z"/>
<path d="M5773 5101 c-67 -43 -119 -81 -116 -85 4 -4 0 -4 -10 0 -11 4 -17 1
-18 -7 -4 -62 -36 -209 -66 -305 -31 -95 -27 -115 35 -179 54 -56 132 -89 209
-88 94 1 116 14 148 86 29 65 123 216 157 254 l20 22 -36 158 c-20 87 -38 162
-39 167 -3 8 -60 -125 -92 -214 -26 -70 -95 -93 -134 -44 -12 15 -21 35 -21
46 0 11 20 67 43 126 56 138 58 142 49 141 -4 0 -62 -36 -129 -78z"/>
<path d="M4487 4952 c-3 -4 -8 -38 -12 -77 -3 -38 -9 -80 -12 -91 -3 -14 1
-23 11 -27 32 -12 275 -29 320 -23 l47 7 -3 97 -3 97 -95 7 c-52 3 -130 9
-172 12 -43 3 -79 2 -81 -2z"/>
<path d="M2450 4610 c-156 -65 -286 -123 -288 -128 -1 -5 17 -56 42 -113 24
-57 135 -324 246 -594 111 -269 206 -496 210 -503 4 -9 19 18 39 71 63 167
195 326 344 414 85 51 82 43 46 133 -9 25 -23 44 -29 42 -6 -1 -70 -27 -142
-57 -118 -50 -134 -55 -164 -45 -43 15 -59 64 -35 109 6 10 73 44 150 76 157
65 148 54 110 142 -16 38 -21 42 -41 34 -13 -5 -47 -18 -76 -30 -29 -12 -60
-21 -68 -21 -25 0 -64 47 -64 77 1 41 19 59 93 88 37 15 69 31 72 35 7 11 -38
120 -50 120 -5 0 -69 -25 -141 -55 -73 -30 -139 -55 -147 -55 -30 0 -67 40
-67 74 0 46 20 60 167 122 70 29 129 57 131 62 2 8 -45 123 -50 121 -2 0 -131
-54 -288 -119z"/>
<path d="M4447 4573 c-7 -39 -10 -313 -4 -313 2 0 39 9 82 20 43 11 123 23
176 27 113 7 102 -7 119 148 15 139 16 134 -28 128 -39 -5 -300 13 -325 23
-10 3 -16 -6 -20 -33z"/>
<path d="M5451 4412 c-7 -15 -37 -86 -67 -159 l-54 -132 47 -43 c25 -24 56
-52 68 -63 39 -36 122 -149 153 -208 17 -31 33 -54 35 -50 5 9 157 375 193
466 l23 57 -43 0 c-96 0 -226 52 -300 120 l-43 40 -12 -28z"/>
<path d="M4595 4145 c-259 -54 -469 -221 -584 -464 -53 -112 -81 -124 -167
-69 -216 138 -453 155 -669 48 -222 -109 -355 -306 -381 -562 -8 -81 -27 -104
-82 -99 -20 2 -84 4 -142 5 -99 1 -109 -1 -173 -31 -219 -104 -307 -367 -197
-584 36 -70 137 -161 215 -195 l70 -29 1624 -3 c1071 -1 1644 1 1680 8 227 41
382 264 341 490 -25 137 -108 247 -234 310 -69 34 -72 35 -200 36 -122 1 -130
2 -148 24 -22 27 -22 42 -3 116 23 87 29 219 15 304 -33 199 -104 337 -245
476 -79 78 -106 98 -196 142 -57 28 -133 58 -169 67 -91 23 -268 28 -355 10z
m105 -145 c25 -25 26 -71 3 -99 -13 -16 -36 -24 -79 -30 -120 -17 -213 -91
-254 -201 -24 -64 -41 -80 -87 -80 -73 1 -88 70 -37 174 74 151 226 252 382
255 39 1 57 -4 72 -19z m-1361 -498 c26 -20 31 -73 11 -98 -8 -8 -33 -25 -57
-36 -63 -29 -119 -97 -133 -161 -18 -80 -20 -86 -36 -102 -22 -22 -80 -19
-104 5 -40 40 -15 175 47 257 45 59 83 91 147 125 60 32 96 35 125 10z m1004
-377 c47 -19 84 -44 124 -82 54 -54 56 -54 87 -41 18 7 69 13 121 13 76 0 99
-4 145 -26 128 -60 221 -210 163 -262 -38 -33 -104 -22 -122 21 -29 70 -111
121 -192 122 -33 0 -64 -9 -104 -30 -87 -46 -111 -40 -155 33 -96 161 -316
186 -440 50 -77 -84 -98 -179 -64 -287 19 -61 8 -101 -32 -116 -60 -23 -97 11
-120 108 -19 80 -17 149 6 223 38 125 113 212 225 265 88 41 101 43 205 39 64
-2 101 -9 153 -30z"/>
</g>
</svg>
