<?xml version="1.0" standalone="no"?>
<!DOCTYPE svg PUBLIC "-//W3C//DTD SVG 20010904//EN"
 "http://www.w3.org/TR/2001/REC-SVG-20010904/DTD/svg10.dtd">
<svg version="1.0" xmlns="http://www.w3.org/2000/svg"
 width="816.000000pt" height="816.000000pt" viewBox="0 0 816.000000 816.000000"
 preserveAspectRatio="xMidYMid meet">
<metadata>
Created by potrace 1.16, written by Peter Selinger 2001-2019
</metadata>
<linearGradient id="linear-gradient">
    <stop offset="2.29%" stop-color="#255D8B"/>
    <stop offset=" 96.79%" stop-color="#3A80BA"/>
</linearGradient>
<g transform="translate(0.000000,816.000000) scale(0.100000,-0.100000)"
fill="url(#linear-gradient)" stroke="none">
<path d="M5840 7703 c-216 -16 -511 -61 -995 -153 -601 -113 -807 -128 -1280
-91 -392 30 -607 35 -875 22 -250 -13 -314 -21 -425 -52 -413 -118 -749 -273
-1065 -490 -587 -403 -1009 -1058 -1145 -1777 -62 -329 -60 -781 5 -1135 95
-519 285 -999 603 -1522 64 -104 85 -136 199 -298 187 -263 451 -564 708 -802
458 -426 1003 -759 1514 -926 748 -245 1520 -163 2326 247 237 120 620 359
620 386 0 6 3 8 6 5 4 -4 20 4 36 16 17 12 43 31 58 42 97 69 220 168 220 176
0 6 4 8 9 5 5 -4 11 -3 13 1 4 9 178 158 225 193 18 13 30 27 27 32 -3 5 -2 7
3 6 14 -5 134 88 125 96 -4 4 -2 6 3 4 6 -1 52 23 104 55 51 32 99 61 107 64
8 3 11 10 7 16 -3 6 -1 7 6 3 6 -4 23 1 39 12 15 10 96 56 180 101 154 82 332
188 332 197 0 3 -5 2 -12 -2 -7 -4 -8 -3 -4 5 4 6 12 9 17 6 22 -14 212 165
275 259 68 101 117 195 110 213 -3 8 -2 12 3 8 11 -6 41 70 76 195 33 116 48
190 79 380 136 841 79 1685 -173 2530 -18 58 -63 215 -102 350 -135 468 -197
647 -288 828 -151 301 -363 508 -671 655 -225 107 -441 148 -768 145 -103 -1
-207 -3 -232 -5z m-475 -1628 c77 -39 140 -101 173 -173 l27 -57 3 -692 3
-693 270 0 c221 0 276 -3 307 -16 47 -19 88 -58 113 -106 19 -37 19 -64 17
-745 l-3 -708 -30 -45 c-21 -31 -47 -54 -85 -73 l-55 -28 -371 3 -371 3 -48
30 c-36 22 -57 45 -77 84 l-28 53 0 379 0 379 -280 0 -280 0 0 -140 0 -140
128 0 c145 0 188 -13 236 -71 47 -56 56 -88 56 -212 0 -103 -2 -116 -21 -133
-20 -18 -48 -19 -650 -22 l-629 -3 -19 -37 c-28 -55 -89 -111 -151 -141 l-55
-26 -650 0 -650 0 -46 23 c-74 36 -125 87 -161 160 l-33 67 0 1030 c0 1185 -7
1093 94 1196 90 91 122 99 396 99 l225 0 0 253 c0 240 2 255 23 308 30 72 70
121 133 165 95 65 34 63 1289 61 l1140 -2 60 -30z"/>
<path d="M2983 5935 c-58 -29 -97 -79 -113 -145 -7 -28 -10 -126 -8 -255 l3
-210 345 -5 c333 -5 347 -6 390 -28 72 -35 114 -75 151 -144 l34 -63 3 -452 3
-453 708 0 709 0 4 63 c2 36 12 79 24 102 26 51 94 103 145 111 l39 7 0 664
c0 725 2 703 -58 767 -15 16 -45 37 -67 47 -38 18 -91 19 -1151 19 l-1110 0
-51 -25z"/>
<path d="M2251 5152 c-54 -27 -91 -80 -98 -140 l-6 -52 748 0 748 0 -6 55 c-7
66 -34 108 -87 135 -38 19 -61 20 -652 20 -564 0 -616 -1 -647 -18z"/>
<path d="M2150 4035 l0 -785 745 0 745 0 0 785 0 785 -745 0 -745 0 0 -785z"/>
<path d="M5380 4290 c-14 -14 -20 -33 -20 -65 l0 -45 385 0 385 0 0 46 c0 35
-5 51 -22 65 -20 18 -44 19 -365 19 -330 0 -344 -1 -363 -20z"/>
<path d="M3790 3925 l0 -105 710 0 710 0 0 105 0 105 -710 0 -710 0 0 -105z"/>
<path d="M5360 3605 l0 -425 385 0 385 0 0 425 0 425 -385 0 -385 0 0 -425z"/>
<path d="M3790 3530 l0 -140 355 0 355 0 0 140 0 140 -355 0 -355 0 0 -140z"/>
<path d="M3790 3170 l0 -70 565 0 565 0 0 50 c0 37 -5 55 -20 70 -20 20 -33
20 -565 20 l-545 0 0 -70z"/>
<path d="M2150 3068 c0 -46 36 -112 78 -145 l37 -28 632 0 631 0 39 31 c46 37
73 87 73 137 l0 37 -745 0 -745 0 0 -32z"/>
<path d="M5360 2982 c0 -38 5 -53 23 -70 23 -22 28 -22 359 -22 324 0 336 1
362 21 22 17 26 28 26 70 l0 49 -385 0 -385 0 0 -48z"/>
</g>
</svg>
