<?xml version="1.0" standalone="no"?>
<!DOCTYPE svg PUBLIC "-//W3C//DTD SVG 20010904//EN"
 "http://www.w3.org/TR/2001/REC-SVG-20010904/DTD/svg10.dtd">
<svg version="1.0" xmlns="http://www.w3.org/2000/svg"
 width="816.000000pt" height="816.000000pt" viewBox="0 0 816.000000 816.000000"
 preserveAspectRatio="xMidYMid meet">
<metadata>
Created by potrace 1.16, written by Peter Selinger 2001-2019
</metadata>
<linearGradient id="linear-gradient">
    <stop offset="2.29%" stop-color="#255D8B"/>
    <stop offset=" 96.79%" stop-color="#3A80BA"/>
</linearGradient>
<g transform="translate(0.000000,816.000000) scale(0.100000,-0.100000)"
fill="url(#linear-gradient)" stroke="none">
<path d="M5752 7465 c-196 -20 -375 -48 -772 -121 -791 -146 -906 -155 -1427
-112 -311 25 -811 30 -1033 10 -144 -14 -204 -28 -425 -99 -754 -245 -1323
-682 -1684 -1294 -292 -498 -429 -1063 -393 -1631 34 -523 164 -999 412 -1503
164 -335 311 -569 568 -908 298 -394 738 -807 1167 -1096 194 -130 291 -186
506 -290 467 -226 908 -325 1364 -307 262 10 462 43 730 122 208 60 445 154
612 241 38 19 100 51 138 71 256 132 659 413 973 678 163 138 163 138 232 190
100 75 279 185 465 284 213 114 256 140 248 152 -3 6 -1 8 4 5 18 -11 59 14
182 114 247 201 375 479 457 991 9 55 13 106 10 114 -3 8 -2 13 3 10 8 -5 20
80 43 324 7 70 12 273 11 460 0 318 -3 377 -39 707 -4 34 -11 60 -15 57 -5 -3
-6 2 -3 10 18 47 -101 597 -194 901 -27 88 -53 175 -57 193 -3 18 -11 30 -16
27 -5 -4 -6 1 -3 9 3 8 -3 44 -14 78 -11 35 -34 115 -52 178 -109 392 -221
660 -351 843 -34 48 -66 84 -72 80 -6 -3 -7 -1 -3 5 4 6 -23 40 -61 79 -225
225 -479 358 -793 415 -149 27 -520 34 -718 13z m-1712 -1200 c180 -30 369
-109 526 -221 67 -49 79 -54 103 -45 14 5 168 71 341 146 238 103 322 135 345
132 17 -2 118 -43 225 -90 337 -147 589 -256 770 -334 96 -41 183 -84 193 -95
17 -20 18 -59 15 -692 -3 -646 -4 -674 -24 -741 -63 -211 -170 -356 -368 -499
-139 -101 -249 -178 -396 -282 -47 -33 -123 -88 -170 -123 -47 -34 -106 -76
-132 -92 l-48 -31 0 -502 c0 -539 -2 -567 -53 -641 -64 -94 -139 -145 -242
-165 -44 -8 -403 -10 -1315 -8 l-1255 3 -65 31 c-115 55 -187 149 -210 277 -7
36 -10 414 -8 1088 l3 1034 23 55 c50 122 148 205 272 229 l60 12 0 212 c0
303 23 439 105 628 39 89 127 236 171 285 103 115 172 178 254 234 157 105
355 181 535 203 78 10 259 5 345 -8z"/>
<path d="M3655 6116 c-361 -70 -663 -318 -796 -654 -61 -152 -72 -223 -77
-499 l-4 -253 140 0 140 0 5 248 c4 280 14 330 88 473 181 347 603 509 967
371 57 -22 52 -23 167 28 11 5 59 27 108 48 98 44 98 40 2 100 -80 49 -173 89
-275 117 -117 33 -350 43 -465 21z"/>
<path d="M5225 6074 c-55 -25 -136 -60 -180 -78 -44 -19 -206 -88 -360 -155
-154 -68 -308 -134 -343 -149 l-63 -26 4 -635 c3 -610 4 -638 23 -696 49 -143
133 -262 238 -339 145 -106 246 -179 431 -310 105 -74 227 -162 271 -195 45
-34 87 -61 93 -61 9 0 602 420 776 550 139 104 220 220 264 380 19 68 20 105
21 687 1 338 0 617 -2 618 -2 2 -53 25 -113 51 -130 55 -651 281 -680 294 -98
46 -252 110 -265 109 -8 0 -60 -20 -115 -45z m358 -199 c122 -53 231 -100 242
-105 25 -12 200 -88 328 -143 55 -23 103 -50 109 -60 6 -12 9 -225 9 -570 -1
-599 -2 -605 -58 -712 -56 -108 -106 -151 -482 -419 -286 -204 -366 -256 -391
-256 -33 0 -32 -1 -375 246 -428 309 -432 312 -491 428 -62 119 -64 142 -64
726 0 403 3 531 13 550 12 23 139 85 347 169 25 10 115 49 200 86 298 131 355
154 373 155 9 0 117 -43 240 -95z"/>
<path d="M4943 5641 l-383 -166 0 -476 c0 -301 4 -497 11 -534 22 -121 83
-203 219 -296 47 -32 141 -99 210 -149 69 -50 174 -125 233 -166 l108 -76 70
48 c94 66 136 97 258 184 57 41 138 99 180 127 109 75 167 128 206 187 63 95
65 115 65 661 l0 491 -102 43 c-57 25 -141 61 -188 82 -47 20 -174 76 -282
123 -108 47 -202 86 -210 85 -7 -1 -185 -76 -395 -168z m938 -360 c16 -13 23
-29 23 -52 0 -30 -45 -90 -337 -456 -185 -232 -346 -427 -358 -433 -11 -7 -32
-9 -46 -6 -25 7 -348 245 -370 274 -14 17 -17 70 -5 88 14 21 54 36 80 29 14
-3 65 -36 113 -73 192 -146 178 -138 198 -116 10 10 145 179 300 374 156 195
292 363 303 373 26 22 70 22 99 -2z"/>
<path d="M3690 5684 c-230 -61 -406 -239 -459 -464 -18 -72 -21 -118 -21 -297
l0 -213 460 0 460 0 0 460 0 460 -23 15 c-75 49 -301 70 -417 39z"/>
<path d="M2555 4541 c-92 -42 -130 -108 -126 -223 l1 -38 215 0 c231 0 258 -5
273 -50 11 -32 -7 -84 -33 -94 -9 -3 -115 -6 -235 -6 l-219 0 -3 -22 c-2 -13
-1 -44 0 -70 l4 -48 218 0 c120 0 226 -3 235 -6 26 -10 44 -62 33 -94 -15 -45
-42 -50 -273 -50 l-215 0 0 -64 0 -65 224 -3 c204 -3 226 -5 245 -22 25 -23
28 -72 5 -104 -15 -22 -19 -22 -245 -22 l-229 0 0 -70 0 -70 225 0 c212 0 226
-1 245 -20 12 -12 20 -33 20 -52 0 -73 -19 -78 -274 -78 -242 0 -224 7 -218
-86 l4 -54 224 0 c211 0 225 -1 244 -20 25 -25 26 -81 2 -103 -26 -24 -45 -25
-269 -26 l-203 -1 0 -65 0 -65 216 0 c255 0 274 -5 274 -77 0 -20 -8 -41 -20
-53 -19 -19 -33 -20 -244 -20 -253 0 -234 8 -228 -86 l4 -54 218 0 c120 0 226
-3 235 -6 26 -10 44 -62 33 -94 -15 -45 -42 -50 -273 -50 l-215 0 0 -59 c0
-32 6 -74 14 -93 20 -46 85 -104 133 -117 53 -15 2483 -15 2536 0 86 24 147
110 147 209 l0 60 -219 0 c-206 0 -220 1 -245 21 -33 26 -36 79 -6 109 19 19
33 20 245 20 l225 0 0 70 0 70 -223 0 c-256 0 -267 3 -267 70 0 30 6 43 26 59
25 20 39 21 245 21 l219 0 0 64 0 65 -224 3 c-204 3 -226 5 -245 22 -27 25
-29 86 -3 109 16 15 48 17 245 17 l227 0 0 70 0 70 -216 0 c-255 0 -274 5
-274 78 0 19 8 40 20 52 18 18 33 20 156 20 l136 0 -113 82 c-63 45 -186 134
-274 197 -88 64 -180 129 -205 146 -65 43 -169 150 -219 224 -86 127 -141 293
-141 426 l0 65 -767 0 c-724 0 -770 -2 -808 -19z m1427 -502 c300 -101 393
-475 175 -707 l-54 -57 53 -289 c29 -158 50 -296 47 -305 -3 -9 -13 -24 -21
-33 -14 -16 -43 -18 -334 -18 -305 0 -319 1 -338 20 -11 11 -20 33 -20 51 0
17 23 154 50 305 l50 275 -29 25 c-89 74 -144 202 -144 329 1 149 70 275 201
365 88 60 251 78 364 39z"/>
<path d="M3735 3891 c-56 -26 -102 -68 -133 -121 -24 -40 -27 -55 -27 -140 0
-91 2 -98 33 -147 19 -29 56 -68 83 -87 56 -41 66 -66 50 -133 -6 -27 -27
-138 -46 -248 -19 -110 -37 -208 -39 -217 -4 -17 10 -18 190 -18 l194 0 -5 28
c-3 15 -25 136 -49 269 -25 133 -42 251 -39 262 3 12 27 37 55 56 183 132 158
403 -46 496 -56 25 -167 25 -221 0z"/>
</g>
</svg>
